<svg width="427" height="260" viewBox="0 0 427 260" fill="none" xmlns="http://www.w3.org/2000/svg">
<path d="M125.9 46.35C123.6 46.35 121.533 45.95 119.7 45.15C117.9 44.3167 116.483 43.1833 115.45 41.75C114.417 40.2833 113.883 38.6 113.85 36.7H118.7C118.867 38.3333 119.533 39.7167 120.7 40.85C121.9 41.95 123.633 42.5 125.9 42.5C128.067 42.5 129.767 41.9667 131 40.9C132.267 39.8 132.9 38.4 132.9 36.7C132.9 35.3667 132.533 34.2833 131.8 33.45C131.067 32.6167 130.15 31.9833 129.05 31.55C127.95 31.1167 126.467 30.65 124.6 30.15C122.3 29.55 120.45 28.95 119.05 28.35C117.683 27.75 116.5 26.8167 115.5 25.55C114.533 24.25 114.05 22.5167 114.05 20.35C114.05 18.45 114.533 16.7667 115.5 15.3C116.467 13.8333 117.817 12.7 119.55 11.9C121.317 11.1 123.333 10.7 125.6 10.7C128.867 10.7 131.533 11.5167 133.6 13.15C135.7 14.7833 136.883 16.95 137.15 19.65H132.15C131.983 18.3167 131.283 17.15 130.05 16.15C128.817 15.1167 127.183 14.6 125.15 14.6C123.25 14.6 121.7 15.1 120.5 16.1C119.3 17.0667 118.7 18.4333 118.7 20.2C118.7 21.4667 119.05 22.5 119.75 23.3C120.483 24.1 121.367 24.7167 122.4 25.15C123.467 25.55 124.95 26.0167 126.85 26.55C129.15 27.1833 131 27.8167 132.4 28.45C133.8 29.05 135 30 136 31.3C137 32.5667 137.5 34.3 137.5 36.5C137.5 38.2 137.05 39.8 136.15 41.3C135.25 42.8 133.917 44.0167 132.15 44.95C130.383 45.8833 128.3 46.35 125.9 46.35ZM180.696 18.6L172.146 46H167.446L160.846 24.25L154.246 46H149.546L140.946 18.6H145.596L151.896 41.6L158.696 18.6H163.346L169.996 41.65L176.196 18.6H180.696ZM187.561 14.15C186.695 14.15 185.961 13.85 185.361 13.25C184.761 12.65 184.461 11.9167 184.461 11.05C184.461 10.1833 184.761 9.45 185.361 8.85C185.961 8.25 186.695 7.95 187.561 7.95C188.395 7.95 189.095 8.25 189.661 8.85C190.261 9.45 190.561 10.1833 190.561 11.05C190.561 11.9167 190.261 12.65 189.661 13.25C189.095 13.85 188.395 14.15 187.561 14.15ZM189.761 18.6V46H185.211V18.6H189.761ZM207.216 46.45C205.116 46.45 203.233 46.1 201.566 45.4C199.899 44.6667 198.583 43.6667 197.616 42.4C196.649 41.1 196.116 39.6167 196.016 37.95H200.716C200.849 39.3167 201.483 40.4333 202.616 41.3C203.783 42.1667 205.299 42.6 207.166 42.6C208.899 42.6 210.266 42.2167 211.266 41.45C212.266 40.6833 212.766 39.7167 212.766 38.55C212.766 37.35 212.233 36.4667 211.166 35.9C210.099 35.3 208.449 34.7167 206.216 34.15C204.183 33.6167 202.516 33.0833 201.216 32.55C199.949 31.9833 198.849 31.1667 197.916 30.1C197.016 29 196.566 27.5667 196.566 25.8C196.566 24.4 196.983 23.1167 197.816 21.95C198.649 20.7833 199.833 19.8667 201.366 19.2C202.899 18.5 204.649 18.15 206.616 18.15C209.649 18.15 212.099 18.9167 213.966 20.45C215.833 21.9833 216.833 24.0833 216.966 26.75H212.416C212.316 25.3167 211.733 24.1667 210.666 23.3C209.633 22.4333 208.233 22 206.466 22C204.833 22 203.533 22.35 202.566 23.05C201.599 23.75 201.116 24.6667 201.116 25.8C201.116 26.7 201.399 27.45 201.966 28.05C202.566 28.6167 203.299 29.0833 204.166 29.45C205.066 29.7833 206.299 30.1667 207.866 30.6C209.833 31.1333 211.433 31.6667 212.666 32.2C213.899 32.7 214.949 33.4667 215.816 34.5C216.716 35.5333 217.183 36.8833 217.216 38.55C217.216 40.05 216.799 41.4 215.966 42.6C215.133 43.8 213.949 44.75 212.416 45.45C210.916 46.1167 209.183 46.45 207.216 46.45ZM233.339 46.45C231.239 46.45 229.356 46.1 227.689 45.4C226.022 44.6667 224.706 43.6667 223.739 42.4C222.772 41.1 222.239 39.6167 222.139 37.95H226.839C226.972 39.3167 227.606 40.4333 228.739 41.3C229.906 42.1667 231.422 42.6 233.289 42.6C235.022 42.6 236.389 42.2167 237.389 41.45C238.389 40.6833 238.889 39.7167 238.889 38.55C238.889 37.35 238.356 36.4667 237.289 35.9C236.222 35.3 234.572 34.7167 232.339 34.15C230.306 33.6167 228.639 33.0833 227.339 32.55C226.072 31.9833 224.972 31.1667 224.039 30.1C223.139 29 222.689 27.5667 222.689 25.8C222.689 24.4 223.106 23.1167 223.939 21.95C224.772 20.7833 225.956 19.8667 227.489 19.2C229.022 18.5 230.772 18.15 232.739 18.15C235.772 18.15 238.222 18.9167 240.089 20.45C241.956 21.9833 242.956 24.0833 243.089 26.75H238.539C238.439 25.3167 237.856 24.1667 236.789 23.3C235.756 22.4333 234.356 22 232.589 22C230.956 22 229.656 22.35 228.689 23.05C227.722 23.75 227.239 24.6667 227.239 25.8C227.239 26.7 227.522 27.45 228.089 28.05C228.689 28.6167 229.422 29.0833 230.289 29.45C231.189 29.7833 232.422 30.1667 233.989 30.6C235.956 31.1333 237.556 31.6667 238.789 32.2C240.022 32.7 241.072 33.4667 241.939 34.5C242.839 35.5333 243.306 36.8833 243.339 38.55C243.339 40.05 242.922 41.4 242.089 42.6C241.256 43.8 240.072 44.75 238.539 45.45C237.039 46.1167 235.306 46.45 233.339 46.45ZM248.062 28.55C248.062 25.15 248.829 22.1 250.362 19.4C251.895 16.6667 253.979 14.5333 256.612 13C259.279 11.4667 262.229 10.7 265.462 10.7C269.262 10.7 272.579 11.6167 275.412 13.45C278.245 15.2833 280.312 17.8833 281.612 21.25H276.162C275.195 19.15 273.795 17.5333 271.962 16.4C270.162 15.2667 267.995 14.7 265.462 14.7C263.029 14.7 260.845 15.2667 258.912 16.4C256.979 17.5333 255.462 19.15 254.362 21.25C253.262 23.3167 252.712 25.75 252.712 28.55C252.712 31.3167 253.262 33.75 254.362 35.85C255.462 37.9167 256.979 39.5167 258.912 40.65C260.845 41.7833 263.029 42.35 265.462 42.35C267.995 42.35 270.162 41.8 271.962 40.7C273.795 39.5667 275.195 37.95 276.162 35.85H281.612C280.312 39.1833 278.245 41.7667 275.412 43.6C272.579 45.4 269.262 46.3 265.462 46.3C262.229 46.3 259.279 45.55 256.612 44.05C253.979 42.5167 251.895 40.4 250.362 37.7C248.829 35 248.062 31.95 248.062 28.55ZM315.235 11.15V46H310.685V30.2H292.935V46H288.385V11.15H292.935V26.45H310.685V11.15H315.235ZM327.554 11.15V46H323.004V11.15H327.554ZM140.85 79.2C140.85 81.2333 140.383 83.1 139.45 84.8C138.517 86.4667 137.083 87.8167 135.15 88.85C133.217 89.8833 130.817 90.4 127.95 90.4H122.65V103H114.1V67.9H127.95C130.75 67.9 133.117 68.3833 135.05 69.35C136.983 70.3167 138.433 71.65 139.4 73.35C140.367 75.05 140.85 77 140.85 79.2ZM127.3 83.6C128.933 83.6 130.15 83.2167 130.95 82.45C131.75 81.6833 132.15 80.6 132.15 79.2C132.15 77.8 131.75 76.7167 130.95 75.95C130.15 75.1833 128.933 74.8 127.3 74.8H122.65V83.6H127.3ZM143.601 89C143.601 86.1333 144.135 83.6167 145.201 81.45C146.301 79.2833 147.785 77.6167 149.651 76.45C151.518 75.2833 153.601 74.7 155.901 74.7C157.868 74.7 159.585 75.1 161.051 75.9C162.551 76.7 163.701 77.75 164.501 79.05V75.1H173.051V103H164.501V99.05C163.668 100.35 162.501 101.4 161.001 102.2C159.535 103 157.818 103.4 155.851 103.4C153.585 103.4 151.518 102.817 149.651 101.65C147.785 100.45 146.301 98.7667 145.201 96.6C144.135 94.4 143.601 91.8667 143.601 89ZM164.501 89.05C164.501 86.9167 163.901 85.2333 162.701 84C161.535 82.7667 160.101 82.15 158.401 82.15C156.701 82.15 155.251 82.7667 154.051 84C152.885 85.2 152.301 86.8667 152.301 89C152.301 91.1333 152.885 92.8333 154.051 94.1C155.251 95.3333 156.701 95.95 158.401 95.95C160.101 95.95 161.535 95.3333 162.701 94.1C163.901 92.8667 164.501 91.1833 164.501 89.05ZM194.787 95.75V103H190.437C187.337 103 184.92 102.25 183.187 100.75C181.453 99.2167 180.587 96.7333 180.587 93.3V82.2H177.187V75.1H180.587V68.3H189.137V75.1H194.737V82.2H189.137V93.4C189.137 94.2333 189.337 94.8333 189.737 95.2C190.137 95.5667 190.803 95.75 191.737 95.75H194.787ZM216.699 74.8C219.899 74.8 222.466 75.8667 224.399 78C226.333 80.1 227.299 83 227.299 86.7V103H218.799V87.85C218.799 85.9833 218.316 84.5333 217.349 83.5C216.383 82.4667 215.083 81.95 213.449 81.95C211.816 81.95 210.516 82.4667 209.549 83.5C208.583 84.5333 208.099 85.9833 208.099 87.85V103H199.549V66H208.099V78.85C208.966 77.6167 210.149 76.6333 211.649 75.9C213.149 75.1667 214.833 74.8 216.699 74.8ZM273.291 75.1L265.741 103H256.291L251.891 84.9L247.341 103H237.941L230.341 75.1H238.891L242.841 95.05L247.541 75.1H256.591L261.341 94.95L265.241 75.1H273.291ZM274.851 89C274.851 86.1333 275.385 83.6167 276.451 81.45C277.551 79.2833 279.035 77.6167 280.901 76.45C282.768 75.2833 284.851 74.7 287.151 74.7C289.118 74.7 290.835 75.1 292.301 75.9C293.801 76.7 294.951 77.75 295.751 79.05V75.1H304.301V103H295.751V99.05C294.918 100.35 293.751 101.4 292.251 102.2C290.785 103 289.068 103.4 287.101 103.4C284.835 103.4 282.768 102.817 280.901 101.65C279.035 100.45 277.551 98.7667 276.451 96.6C275.385 94.4 274.851 91.8667 274.851 89ZM295.751 89.05C295.751 86.9167 295.151 85.2333 293.951 84C292.785 82.7667 291.351 82.15 289.651 82.15C287.951 82.15 286.501 82.7667 285.301 84C284.135 85.2 283.551 86.8667 283.551 89C283.551 91.1333 284.135 92.8333 285.301 94.1C286.501 95.3333 287.951 95.95 289.651 95.95C291.351 95.95 292.785 95.3333 293.951 94.1C295.151 92.8667 295.751 91.1833 295.751 89.05ZM338.987 75.1L321.487 116.25H312.287L318.687 102.05L307.337 75.1H316.887L323.337 92.55L329.737 75.1H338.987ZM353.429 103.4C350.995 103.4 348.829 102.983 346.929 102.15C345.029 101.317 343.529 100.183 342.429 98.75C341.329 97.2833 340.712 95.65 340.579 93.85H349.029C349.129 94.8167 349.579 95.6 350.379 96.2C351.179 96.8 352.162 97.1 353.329 97.1C354.395 97.1 355.212 96.9 355.779 96.5C356.379 96.0667 356.679 95.5167 356.679 94.85C356.679 94.05 356.262 93.4667 355.429 93.1C354.595 92.7 353.245 92.2667 351.379 91.8C349.379 91.3333 347.712 90.85 346.379 90.35C345.045 89.8167 343.895 89 342.929 87.9C341.962 86.7667 341.479 85.25 341.479 83.35C341.479 81.75 341.912 80.3 342.779 79C343.679 77.6667 344.979 76.6167 346.679 75.85C348.412 75.0833 350.462 74.7 352.829 74.7C356.329 74.7 359.079 75.5667 361.079 77.3C363.112 79.0333 364.279 81.3333 364.579 84.2H356.679C356.545 83.2333 356.112 82.4667 355.379 81.9C354.679 81.3333 353.745 81.05 352.579 81.05C351.579 81.05 350.812 81.25 350.279 81.65C349.745 82.0167 349.479 82.5333 349.479 83.2C349.479 84 349.895 84.6 350.729 85C351.595 85.4 352.929 85.8 354.729 86.2C356.795 86.7333 358.479 87.2667 359.779 87.8C361.079 88.3 362.212 89.1333 363.179 90.3C364.179 91.4333 364.695 92.9667 364.729 94.9C364.729 96.5333 364.262 98 363.329 99.3C362.429 100.567 361.112 101.567 359.379 102.3C357.679 103.033 355.695 103.4 353.429 103.4Z" fill="white"/>
<path d="M126.18 137.09V139.31H120.48V158H117.75V139.31H112.02V137.09H126.18ZM151.65 137.09V158H148.92V148.52H138.27V158H135.54V137.09H138.27V146.27H148.92V137.09H151.65ZM165.042 139.31V146.3H172.662V148.55H165.042V155.75H173.562V158H162.312V137.06H173.562V139.31H165.042ZM204.321 158.21C202.941 158.21 201.701 157.97 200.601 157.49C199.521 156.99 198.671 156.31 198.051 155.45C197.431 154.57 197.111 153.56 197.091 152.42H200.001C200.101 153.4 200.501 154.23 201.201 154.91C201.921 155.57 202.961 155.9 204.321 155.9C205.621 155.9 206.641 155.58 207.381 154.94C208.141 154.28 208.521 153.44 208.521 152.42C208.521 151.62 208.301 150.97 207.861 150.47C207.421 149.97 206.871 149.59 206.211 149.33C205.551 149.07 204.661 148.79 203.541 148.49C202.161 148.13 201.051 147.77 200.211 147.41C199.391 147.05 198.681 146.49 198.081 145.73C197.501 144.95 197.211 143.91 197.211 142.61C197.211 141.47 197.501 140.46 198.081 139.58C198.661 138.7 199.471 138.02 200.511 137.54C201.571 137.06 202.781 136.82 204.141 136.82C206.101 136.82 207.701 137.31 208.941 138.29C210.201 139.27 210.911 140.57 211.071 142.19H208.071C207.971 141.39 207.551 140.69 206.811 140.09C206.071 139.47 205.091 139.16 203.871 139.16C202.731 139.16 201.801 139.46 201.081 140.06C200.361 140.64 200.001 141.46 200.001 142.52C200.001 143.28 200.211 143.9 200.631 144.38C201.071 144.86 201.601 145.23 202.221 145.49C202.861 145.73 203.751 146.01 204.891 146.33C206.271 146.71 207.381 147.09 208.221 147.47C209.061 147.83 209.781 148.4 210.381 149.18C210.981 149.94 211.281 150.98 211.281 152.3C211.281 153.32 211.011 154.28 210.471 155.18C209.931 156.08 209.131 156.81 208.071 157.37C207.011 157.93 205.761 158.21 204.321 158.21ZM234.168 137.09V139.31H228.468V158H225.738V139.31H220.008V137.09H234.168ZM246.199 137.09V150.32C246.199 152.18 246.649 153.56 247.549 154.46C248.469 155.36 249.739 155.81 251.359 155.81C252.959 155.81 254.209 155.36 255.109 154.46C256.029 153.56 256.489 152.18 256.489 150.32V137.09H259.219V150.29C259.219 152.03 258.869 153.5 258.169 154.7C257.469 155.88 256.519 156.76 255.319 157.34C254.139 157.92 252.809 158.21 251.329 158.21C249.849 158.21 248.509 157.92 247.309 157.34C246.129 156.76 245.189 155.88 244.489 154.7C243.809 153.5 243.469 152.03 243.469 150.29V137.09H246.199ZM276.283 137.09C278.563 137.09 280.533 137.52 282.193 138.38C283.873 139.22 285.153 140.43 286.033 142.01C286.933 143.59 287.383 145.45 287.383 147.59C287.383 149.73 286.933 151.59 286.033 153.17C285.153 154.73 283.873 155.93 282.193 156.77C280.533 157.59 278.563 158 276.283 158H269.773V137.09H276.283ZM276.283 155.75C278.983 155.75 281.043 155.04 282.463 153.62C283.883 152.18 284.593 150.17 284.593 147.59C284.593 144.99 283.873 142.96 282.433 141.5C281.013 140.04 278.963 139.31 276.283 139.31H272.503V155.75H276.283ZM299.714 139.31V146.3H307.334V148.55H299.714V155.75H308.234V158H296.984V137.06H308.234V139.31H299.714ZM334.805 158H332.075L321.095 141.35V158H318.365V137.06H321.095L332.075 153.68V137.06H334.805V158ZM358.328 137.09V139.31H352.628V158H349.898V139.31H344.168V137.09H358.328ZM112.29 181.53C112.29 179.49 112.75 177.66 113.67 176.04C114.59 174.4 115.84 173.12 117.42 172.2C119.02 171.28 120.79 170.82 122.73 170.82C125.01 170.82 127 171.37 128.7 172.47C130.4 173.57 131.64 175.13 132.42 177.15H129.15C128.57 175.89 127.73 174.92 126.63 174.24C125.55 173.56 124.25 173.22 122.73 173.22C121.27 173.22 119.96 173.56 118.8 174.24C117.64 174.92 116.73 175.89 116.07 177.15C115.41 178.39 115.08 179.85 115.08 181.53C115.08 183.19 115.41 184.65 116.07 185.91C116.73 187.15 117.64 188.11 118.8 188.79C119.96 189.47 121.27 189.81 122.73 189.81C124.25 189.81 125.55 189.48 126.63 188.82C127.73 188.14 128.57 187.17 129.15 185.91H132.42C131.64 187.91 130.4 189.46 128.7 190.56C127 191.64 125.01 192.18 122.73 192.18C120.79 192.18 119.02 191.73 117.42 190.83C115.84 189.91 114.59 188.64 113.67 187.02C112.75 185.4 112.29 183.57 112.29 181.53ZM158.594 171.09V192H155.864V182.52H145.214V192H142.484V171.09H145.214V180.27H155.864V171.09H158.594ZM181.615 187.35H172.495L170.815 192H167.935L175.495 171.21H178.645L186.175 192H183.295L181.615 187.35ZM180.835 185.13L177.055 174.57L173.275 185.13H180.835ZM209.45 177.21C209.45 178.95 208.85 180.4 207.65 181.56C206.47 182.7 204.66 183.27 202.22 183.27H198.2V192H195.47V171.09H202.22C204.58 171.09 206.37 171.66 207.59 172.8C208.83 173.94 209.45 175.41 209.45 177.21ZM202.22 181.02C203.74 181.02 204.86 180.69 205.58 180.03C206.3 179.37 206.66 178.43 206.66 177.21C206.66 174.63 205.18 173.34 202.22 173.34H198.2V181.02H202.22ZM231.713 171.09V173.31H226.013V192H223.283V173.31H217.553V171.09H231.713ZM243.804 173.31V180.3H251.424V182.55H243.804V189.75H252.324V192H241.074V171.06H252.324V173.31H243.804ZM273.465 192L268.485 183.45H265.185V192H262.455V171.09H269.205C270.785 171.09 272.115 171.36 273.195 171.9C274.295 172.44 275.115 173.17 275.655 174.09C276.195 175.01 276.465 176.06 276.465 177.24C276.465 178.68 276.045 179.95 275.205 181.05C274.385 182.15 273.145 182.88 271.485 183.24L276.735 192H273.465ZM265.185 181.26H269.205C270.685 181.26 271.795 180.9 272.535 180.18C273.275 179.44 273.645 178.46 273.645 177.24C273.645 176 273.275 175.04 272.535 174.36C271.815 173.68 270.705 173.34 269.205 173.34H265.185V181.26Z" fill="white"/>
<rect x="45" y="10" width="72" height="20" transform="rotate(90 45 10)" fill="white"/>
<rect x="32" y="55" width="32" height="20" transform="rotate(-180 32 55)" fill="white"/>
<rect x="73.3197" y="39.5225" width="44.125" height="19.8621" transform="rotate(158.837 73.3197 39.5225)" fill="white"/>
<rect x="64.8092" y="75.4658" width="44.125" height="19.8621" transform="rotate(-151.586 64.8092 75.4658)" fill="white"/>
</svg>
