<svg width="529" height="130" viewBox="0 0 529 130" fill="none" xmlns="http://www.w3.org/2000/svg">
<path d="M158.76 35.92C158.76 39.1733 158.013 42.16 156.52 44.88C155.027 47.5467 152.733 49.7067 149.64 51.36C146.547 53.0133 142.707 53.84 138.12 53.84H129.64V74H115.96V17.84H138.12C142.6 17.84 146.387 18.6133 149.48 20.16C152.573 21.7067 154.893 23.84 156.44 26.56C157.987 29.28 158.76 32.4 158.76 35.92ZM137.08 42.96C139.693 42.96 141.64 42.3467 142.92 41.12C144.2 39.8933 144.84 38.16 144.84 35.92C144.84 33.68 144.2 31.9467 142.92 30.72C141.64 29.4933 139.693 28.88 137.08 28.88H129.64V42.96H137.08ZM163.162 51.6C163.162 47.0133 164.015 42.9867 165.722 39.52C167.482 36.0533 169.855 33.3867 172.842 31.52C175.829 29.6533 179.162 28.72 182.842 28.72C185.989 28.72 188.735 29.36 191.082 30.64C193.482 31.92 195.322 33.6 196.602 35.68V29.36H210.282V74H196.602V67.68C195.269 69.76 193.402 71.44 191.002 72.72C188.655 74 185.909 74.64 182.762 74.64C179.135 74.64 175.829 73.7067 172.842 71.84C169.855 69.92 167.482 67.2267 165.722 63.76C164.015 60.24 163.162 56.1867 163.162 51.6ZM196.602 51.68C196.602 48.2667 195.642 45.5733 193.722 43.6C191.855 41.6267 189.562 40.64 186.842 40.64C184.122 40.64 181.802 41.6267 179.882 43.6C178.015 45.52 177.082 48.1867 177.082 51.6C177.082 55.0133 178.015 57.7333 179.882 59.76C181.802 61.7333 184.122 62.72 186.842 62.72C189.562 62.72 191.855 61.7333 193.722 59.76C195.642 57.7867 196.602 55.0933 196.602 51.68ZM245.059 62.4V74H238.099C233.139 74 229.272 72.8 226.499 70.4C223.725 67.9467 222.339 63.9733 222.339 58.48V40.72H216.899V29.36H222.339V18.48H236.019V29.36H244.979V40.72H236.019V58.64C236.019 59.9733 236.339 60.9333 236.979 61.52C237.619 62.1067 238.685 62.4 240.179 62.4H245.059ZM280.119 28.88C285.239 28.88 289.345 30.5867 292.439 34C295.532 37.36 297.079 42 297.079 47.92V74H283.479V49.76C283.479 46.7733 282.705 44.4533 281.159 42.8C279.612 41.1467 277.532 40.32 274.919 40.32C272.305 40.32 270.225 41.1467 268.679 42.8C267.132 44.4533 266.359 46.7733 266.359 49.76V74H252.679V14.8H266.359V35.36C267.745 33.3867 269.639 31.8133 272.039 30.64C274.439 29.4667 277.132 28.88 280.119 28.88ZM370.665 29.36L358.585 74H343.465L336.425 45.04L329.145 74H314.105L301.945 29.36H315.625L321.945 61.28L329.465 29.36H343.945L351.545 61.12L357.785 29.36H370.665ZM373.162 51.6C373.162 47.0133 374.015 42.9867 375.722 39.52C377.482 36.0533 379.855 33.3867 382.842 31.52C385.829 29.6533 389.162 28.72 392.842 28.72C395.989 28.72 398.735 29.36 401.082 30.64C403.482 31.92 405.322 33.6 406.602 35.68V29.36H420.282V74H406.602V67.68C405.269 69.76 403.402 71.44 401.002 72.72C398.655 74 395.909 74.64 392.762 74.64C389.135 74.64 385.829 73.7067 382.842 71.84C379.855 69.92 377.482 67.2267 375.722 63.76C374.015 60.24 373.162 56.1867 373.162 51.6ZM406.602 51.68C406.602 48.2667 405.642 45.5733 403.722 43.6C401.855 41.6267 399.562 40.64 396.842 40.64C394.122 40.64 391.802 41.6267 389.882 43.6C388.015 45.52 387.082 48.1867 387.082 51.6C387.082 55.0133 388.015 57.7333 389.882 59.76C391.802 61.7333 394.122 62.72 396.842 62.72C399.562 62.72 401.855 61.7333 403.722 59.76C405.642 57.7867 406.602 55.0933 406.602 51.68ZM475.779 29.36L447.779 95.2H433.059L443.299 72.48L425.139 29.36H440.419L450.739 57.28L460.979 29.36H475.779ZM498.886 74.64C494.992 74.64 491.526 73.9733 488.486 72.64C485.446 71.3067 483.046 69.4933 481.286 67.2C479.526 64.8533 478.539 62.24 478.326 59.36H491.846C492.006 60.9067 492.726 62.16 494.006 63.12C495.286 64.08 496.859 64.56 498.726 64.56C500.432 64.56 501.739 64.24 502.646 63.6C503.606 62.9067 504.086 62.0267 504.086 60.96C504.086 59.68 503.419 58.7467 502.086 58.16C500.752 57.52 498.592 56.8267 495.606 56.08C492.406 55.3333 489.739 54.56 487.606 53.76C485.472 52.9067 483.632 51.6 482.086 49.84C480.539 48.0267 479.766 45.6 479.766 42.56C479.766 40 480.459 37.68 481.846 35.6C483.286 33.4667 485.366 31.7867 488.086 30.56C490.859 29.3333 494.139 28.72 497.926 28.72C503.526 28.72 507.926 30.1067 511.126 32.88C514.379 35.6533 516.246 39.3333 516.726 43.92H504.086C503.872 42.3733 503.179 41.1467 502.006 40.24C500.886 39.3333 499.392 38.88 497.526 38.88C495.926 38.88 494.699 39.2 493.846 39.84C492.992 40.4267 492.566 41.2533 492.566 42.32C492.566 43.6 493.232 44.56 494.566 45.2C495.952 45.84 498.086 46.48 500.966 47.12C504.272 47.9733 506.966 48.8267 509.046 49.68C511.126 50.48 512.939 51.8133 514.486 53.68C516.086 55.4933 516.912 57.9467 516.966 61.04C516.966 63.6533 516.219 66 514.726 68.08C513.286 70.1067 511.179 71.7067 508.406 72.88C505.686 74.0533 502.512 74.64 498.886 74.64Z" fill="black"/>
<rect x="45" y="2" width="72" height="20" transform="rotate(90 45 2)" fill="#3C2FB3"/>
<rect x="32" y="47" width="32" height="20" transform="rotate(-180 32 47)" fill="#3C2FB3"/>
<rect x="73.3197" y="31.5225" width="44.125" height="19.8621" transform="rotate(158.837 73.3197 31.5225)" fill="#3C2FB3"/>
<rect x="64.8092" y="67.4658" width="44.125" height="19.8621" transform="rotate(-151.586 64.8092 67.4658)" fill="#3C2FB3"/>
</svg>
